<?xml version="1.0" encoding="UTF-8"?>
<svg xmlns="http://www.w3.org/2000/svg" version="1.1" viewBox="0 0 360 360">
  <!-- Generator: Adobe Illustrator 29.0.1, SVG Export Plug-In . SVG Version: 2.1.0 Build 192)  -->
  <defs>
    <style>
      .st0 {
        font-size: 11px;
      }

      .st0, .st1 {
        font-family: ArialMT, Arial;
        isolation: isolate;
      }

      .st2, .st3, .st4, .st5, .st6 {
        stroke-linejoin: round;
      }

      .st2, .st5 {
        fill: none;
        stroke: #000;
        stroke-width: 1.1px;
      }

      .st3 {
        fill: #ccc9c1;
        stroke: #ccc9c1;
      }

      .st3, .st4, .st6 {
        stroke-linecap: round;
        stroke-width: .7px;
      }

      .st4 {
        fill: #343434;
        stroke: #343434;
      }

      .st7 {
        letter-spacing: 0em;
      }

      .st1 {
        font-size: 8.8px;
      }

      .st5 {
        stroke-linecap: square;
      }

      .st6 {
        fill: #a4cdee;
        stroke: #a4cdee;
      }

      .st8 {
        display: none;
      }
    </style>
  </defs>
  <g id="Layer_2" class="st8">
    <rect x="-6.3" width="397.7" height="354.5"/>
  </g>
  <g id="Layer_1">
    <circle class="st4" cx="45.4" cy="302.5" r="1.4"/>
    <circle class="st4" cx="43.4" cy="304" r="1.4"/>
    <circle class="st4" cx="52.5" cy="312.6" r="1.4"/>
    <circle class="st3" cx="192.3" cy="127.8" r="1.4"/>
    <circle class="st3" cx="220.7" cy="81.4" r="1.4"/>
    <circle class="st3" cx="235.2" cy="73.2" r="1.4"/>
    <circle class="st3" cx="226.5" cy="64.3" r="1.4"/>
    <circle class="st6" cx="230.9" cy="64.2" r="1.4"/>
    <circle class="st6" cx="239.8" cy="59.8" r="1.4"/>
    <circle class="st6" cx="234.7" cy="68.5" r="1.4"/>
    <circle class="st6" cx="235.5" cy="60" r="1.4"/>
    <circle class="st6" cx="243.8" cy="42.9" r="1.4"/>
    <circle class="st6" cx="239.6" cy="50.1" r="1.4"/>
    <circle class="st6" cx="247.2" cy="46.3" r="1.4"/>
    <circle class="st6" cx="227.9" cy="53.6" r="1.4"/>
    <circle class="st6" cx="249.2" cy="43.3" r="1.4"/>
    <circle class="st6" cx="245.1" cy="50.1" r="1.4"/>
    <circle class="st6" cx="253.8" cy="46.6" r="1.4"/>
    <circle class="st6" cx="257.8" cy="40.9" r="1.4"/>
    <circle class="st4" cx="43.4" cy="313.8" r="1.4"/>
    <circle class="st4" cx="70" cy="275.1" r="1.4"/>
    <circle class="st4" cx="87.4" cy="258.1" r="1.4"/>
    <circle class="st4" cx="113.7" cy="220.1" r="1.4"/>
    <circle class="st3" cx="180.6" cy="132.7" r="1.4"/>
    <circle class="st3" cx="205.7" cy="112.3" r="1.4"/>
    <circle class="st3" cx="202.4" cy="115.7" r="1.4"/>
    <circle class="st3" cx="204.4" cy="105.9" r="1.4"/>
    <circle class="st3" cx="220.2" cy="81.7" r="1.4"/>
    <circle class="st3" cx="243.8" cy="55.1" r="1.4"/>
    <circle class="st6" cx="240.2" cy="57.3" r="1.4"/>
    <circle class="st6" cx="242.2" cy="58.4" r="1.4"/>
    <circle class="st6" cx="244.4" cy="60.1" r="1.4"/>
    <circle class="st6" cx="249.7" cy="51.5" r="1.4"/>
    <circle class="st6" cx="242.7" cy="50.3" r="1.4"/>
    <circle class="st6" cx="238" cy="50.9" r="1.4"/>
    <circle class="st6" cx="243.2" cy="44.8" r="1.4"/>
    <circle class="st6" cx="246.2" cy="46.9" r="1.4"/>
    <circle class="st6" cx="244.9" cy="59.3" r="1.4"/>
    <circle class="st6" cx="254.3" cy="46.6" r="1.4"/>
    <circle class="st6" cx="255" cy="48.6" r="1.4"/>
    <circle class="st4" cx="48.1" cy="305.8" r="1.4"/>
    <circle class="st4" cx="46.5" cy="307.1" r="1.4"/>
    <circle class="st4" cx="64.4" cy="308.4" r="1.4"/>
    <circle class="st4" cx="82.7" cy="268.6" r="1.4"/>
    <circle class="st4" cx="96.9" cy="227.2" r="1.4"/>
    <circle class="st4" cx="148.9" cy="160.6" r="1.4"/>
    <circle class="st3" cx="195.6" cy="113.2" r="1.4"/>
    <circle class="st3" cx="213.9" cy="97.6" r="1.4"/>
    <circle class="st3" cx="226.7" cy="80.7" r="1.4"/>
    <circle class="st6" cx="245.4" cy="52.8" r="1.4"/>
    <circle class="st6" cx="235.4" cy="69.7" r="1.4"/>
    <circle class="st4" cx="157.4" cy="183" r="1.4"/>
    <circle class="st6" cx="237" cy="58.2" r="1.4"/>
    <circle class="st6" cx="245.4" cy="54.9" r="1.4"/>
    <circle class="st6" cx="251.2" cy="40.7" r="1.4"/>
    <circle class="st6" cx="252.5" cy="39.1" r="1.4"/>
    <circle class="st6" cx="255.6" cy="36.2" r="1.4"/>
    <circle class="st6" cx="254.1" cy="38.1" r="1.4"/>
    <circle class="st6" cx="259" cy="42.2" r="1.4"/>
    <circle class="st6" cx="264.2" cy="37.5" r="1.4"/>
    <circle class="st6" cx="264" cy="35.5" r="1.4"/>
    <circle class="st4" cx="61.9" cy="300" r="1.4"/>
    <circle class="st4" cx="85.5" cy="284.1" r="1.4"/>
    <circle class="st4" cx="99.9" cy="251.6" r="1.4"/>
    <circle class="st4" cx="101.5" cy="217.4" r="1.4"/>
    <circle class="st4" cx="122.4" cy="213.6" r="1.4"/>
    <circle class="st4" cx="133.9" cy="200" r="1.4"/>
    <circle class="st3" cx="190.8" cy="138.7" r="1.4"/>
    <circle class="st3" cx="216.3" cy="105.2" r="1.4"/>
    <circle class="st3" cx="225.6" cy="70.9" r="1.4"/>
    <circle class="st3" cx="232.6" cy="66" r="1.4"/>
    <circle class="st3" cx="240.2" cy="49.7" r="1.4"/>
    <circle class="st3" cx="240.1" cy="55.6" r="1.4"/>
    <circle class="st6" cx="248.8" cy="45.7" r="1.4"/>
    <circle class="st3" cx="260.2" cy="23.8" r="1.4"/>
    <circle class="st3" cx="269.7" cy="25.3" r="1.4"/>
    <circle class="st6" cx="276.6" cy="22.9" r="1.4"/>
    <circle class="st6" cx="282.7" cy="21.3" r="1.4"/>
    <circle class="st6" cx="278.5" cy="27.6" r="1.4"/>
    <circle class="st6" cx="283.2" cy="24.3" r="1.4"/>
    <circle class="st6" cx="282.7" cy="23.9" r="1.4"/>
    <circle class="st6" cx="288" cy="20.2" r="1.4"/>
    <line class="st5" x1="31.2" y1="328.5" x2="31.2" y2="5.5"/>
    <text class="st1" transform="translate(18.4 292.6)"><tspan x="0" y="0">-1</tspan></text>
    <text class="st1" transform="translate(21.3 195.7)"><tspan x="0" y="0">0</tspan></text>
    <text class="st1" transform="translate(21.3 98.8)"><tspan x="0" y="0">1</tspan></text>
    <line class="st2" x1="28.4" y1="289.4" x2="31.2" y2="289.4"/>
    <line class="st2" x1="28.4" y1="192.6" x2="31.2" y2="192.6"/>
    <line class="st2" x1="28.4" y1="95.7" x2="31.2" y2="95.7"/>
    <line class="st5" x1="31.2" y1="328.5" x2="300.2" y2="328.5"/>
    <line class="st2" x1="64.6" y1="331.2" x2="64.6" y2="328.5"/>
    <line class="st2" x1="136.1" y1="331.2" x2="136.1" y2="328.5"/>
    <line class="st2" x1="207.7" y1="331.2" x2="207.7" y2="328.5"/>
    <line class="st2" x1="279.2" y1="331.2" x2="279.2" y2="328.5"/>
    <text class="st1" transform="translate(60.7 339.7)"><tspan x="0" y="0">-1</tspan></text>
    <text class="st1" transform="translate(133.7 339.7)"><tspan x="0" y="0">0</tspan></text>
    <text class="st1" transform="translate(205.2 339.7)"><tspan x="0" y="0">1</tspan></text>
    <text class="st1" transform="translate(276.7 339.7)"><tspan x="0" y="0">2</tspan></text>
    <text class="st0" transform="translate(106.1 352.2)"><tspan x="0" y="0">Log</tspan><tspan class="st7" x="18.4" y="0"> </tspan><tspan x="21.4" y="0">of</tspan><tspan class="st7" x="30.6" y="0"> </tspan><tspan x="33.7" y="0">body</tspan><tspan class="st7" x="57.5" y="0"> </tspan><tspan x="60.6" y="0">length</tspan><tspan class="st7" x="90.6" y="0"> </tspan><tspan x="93.7" y="0">(mm)</tspan></text>
    <text class="st0" transform="translate(13.4 222.6) rotate(-90)"><tspan x="0" y="0">log of body width (mm)</tspan></text>
    <text class="st0" transform="translate(316.6 142.3)"><tspan x="0" y="0">cluster</tspan></text>
    <circle class="st4" cx="325.3" cy="157.6" r="1.4"/>
    <circle class="st3" cx="325.3" cy="174.8" r="1.4"/>
    <circle class="st6" cx="325.3" cy="192.1" r="1.4"/>
    <text class="st1" transform="translate(339.4 160.7)"><tspan x="0" y="0">1</tspan></text>
    <text class="st1" transform="translate(339.4 178)"><tspan x="0" y="0">2</tspan></text>
    <text class="st1" transform="translate(339.4 195.3)"><tspan x="0" y="0">3</tspan></text>
  </g>
</svg>